# xmcd
#
# Track frame offsets:
# 150
# 8421
# 19901
# 33780
# 46302
# 53446
# 64487
# 78629
# 90543
# 97963
# 110109
# 123816
#
# Disc length: 1759 seconds
#
#
# Revision: 0
# Processed by: cddbd v1.5.2PL0 Copyright (c) Steve Scherf et al.
# Submitted via: FreeRIP 2.945 
#
DISCID=8a06dd0c
DTITLE=Woody Pines - Rags to Riches
DYEAR=1900
DGENRE=Blues
TTITLE0=The Cuckoo
TTITLE1=Last Gold Dollar
TTITLE2=I'm Going Away
TTITLE3=Down the Road
TTITLE4=Coacaine bill
TTITLE5=Ain't Know Lie
TTITLE6=Al Night Long/Bell Star
TTITLE7=Mole in the Ground
TTITLE8=Dead Hawse
TTITLE9=One Dime Blues
TTITLE10=St. James Hospital
TTITLE11=Some of These Days
EXTD=
EXTT0=
EXTT1=
EXTT2=
EXTT3=
EXTT4=
EXTT5=
EXTT6=
EXTT7=
EXTT8=
EXTT9=
EXTT10=
EXTT11=
PLAYORDER=
